@startuml oop
!pragma useIntermediatePackages false

class oop.SubTyping.Action {
}
class oop.SubTyping.ConcreateInterface {
}
class oop.SubTyping.Interface {
}
class oop.inheritence.AbsInterface {
}
abstract class oop.inheritence.MyInterface {
}
class oop.interface.Duck {
}
class oop.interface.Flyable {
}
class oop.interface.Stack {
  name: str {static}
}
class oop.interface.SubStack1 {
}
class oop.interface.SubStack2 {
}
oop.SubTyping.ConcreateInterface <|-- oop.SubTyping.Action
oop.SubTyping.Interface <|-- oop.SubTyping.ConcreateInterface
oop.interface.Stack <|-- oop.interface.SubStack1
oop.interface.Stack <|-- oop.interface.SubStack2
footer Generated by //py2puml//
@enduml